<?xml version="1.0" encoding="utf-8"?>
<!-- Generator: Adobe Illustrator 16.0.3, SVG Export Plug-In . SVG Version: 6.00 Build 0)  -->
<!DOCTYPE svg PUBLIC "-//W3C//DTD SVG 1.1//EN" "http://www.w3.org/Graphics/SVG/1.1/DTD/svg11.dtd">
<svg version="1.1" id="Layer_1" xmlns="http://www.w3.org/2000/svg" xmlns:xlink="http://www.w3.org/1999/xlink" x="0px" y="0px"
	 width="20.175px" height="21.793px" viewBox="0 0 20.175 21.793" enable-background="new 0 0 20.175 21.793" xml:space="preserve">
<path fill="#3BB449" d="M20.134,20.583c-1.998-4.584-6.926-7.295-11.823-6.424c-3.865,0.688-6.612,2.875-8.27,6.432
	c-0.069,0.15-0.054,0.242,0.071,0.357c0.29,0.271,0.588,0.521,0.89,0.768c1.535-3.316,3.983-5.377,7.388-6.037
	c4.385-0.852,8.789,1.722,10.697,6.117c0.332-0.266,0.656-0.543,0.971-0.84C20.185,20.836,20.207,20.747,20.134,20.583z"/>
<path fill="none" stroke="#3BB449" stroke-width="1.5" stroke-miterlimit="10" d="M10.089,0.75c3.174,0,5.764,2.587,5.766,5.759
	c0.002,3.185-2.591,5.773-5.776,5.77c-3.17-0.002-5.756-2.594-5.755-5.77C4.325,3.337,6.916,0.75,10.089,0.75z"/>
</svg>
