<?xml version="1.0" encoding="utf-8"?>
<!-- Generator: Adobe Illustrator 16.0.3, SVG Export Plug-In . SVG Version: 6.00 Build 0)  -->
<!DOCTYPE svg PUBLIC "-//W3C//DTD SVG 1.1//EN" "http://www.w3.org/Graphics/SVG/1.1/DTD/svg11.dtd">
<svg version="1.1" id="Layer_1" xmlns="http://www.w3.org/2000/svg" xmlns:xlink="http://www.w3.org/1999/xlink" x="0px" y="0px"
	 width="12.651px" height="14.259px" viewBox="0 0 12.651 14.259" enable-background="new 0 0 12.651 14.259" xml:space="preserve">
<g>
	<path d="M11.711,3.871H0.939l1.085,9.789c0.038,0.342,0.329,0.6,0.671,0.6h7.259c0.342,0,0.633-0.258,0.671-0.6L11.711,3.871z"/>
	<path d="M11.663,0.703H0.982C0.439,0.703,0,1.142,0,1.685l0,0C0,2.23,0.439,2.669,0.982,2.669h10.68
		c0.547,0,0.988-0.439,0.988-0.984l0,0C12.651,1.142,12.209,0.703,11.663,0.703z"/>
	<path d="M7.027,0.703c0,0.387-0.316,0.703-0.705,0.703c-0.384,0-0.7-0.316-0.7-0.703C5.622,0.314,5.938,0,6.322,0
		C6.711,0,7.027,0.314,7.027,0.703z"/>
</g>
</svg>
