<?xml version="1.0" encoding="utf-8"?>
<!-- Generator: Adobe Illustrator 16.0.3, SVG Export Plug-In . SVG Version: 6.00 Build 0)  -->
<!DOCTYPE svg PUBLIC "-//W3C//DTD SVG 1.1//EN" "http://www.w3.org/Graphics/SVG/1.1/DTD/svg11.dtd">
<svg version="1.1" id="Layer_1" xmlns="http://www.w3.org/2000/svg" xmlns:xlink="http://www.w3.org/1999/xlink" x="0px" y="0px"
	 width="23.607px" height="29.742px" viewBox="0 0 23.607 29.742" enable-background="new 0 0 23.607 29.742" xml:space="preserve">
<g>
	<path fill="#3BB449" d="M0.012,16.411c0-4.284,0-8.567,0-12.851c0-0.475,0-0.476,0.471-0.477c1.935-0.004,3.867,0,5.801-0.015
		c0.309-0.003,0.409,0.086,0.398,0.396C6.654,4.179,6.75,4.096,6.041,4.099c-1.539,0.005-3.077,0.01-4.615-0.003
		C1.114,4.093,1.03,4.193,1.032,4.498c0.034,7.915,0.062,15.831,0.09,23.745c0.003,0.472,0.008,0.473,0.488,0.473
		c6.836,0,13.674,0,20.509,0c0.436,0,0.438-0.003,0.438-0.45c0.007-7.914,0.012-15.831,0.019-23.746
		c0-0.416-0.003-0.417-0.429-0.417c-1.603-0.001-3.205-0.009-4.807,0.006c-0.325,0.003-0.426-0.09-0.413-0.415
		c0.029-0.708-0.071-0.616,0.616-0.616c1.881-0.002,3.761,0.01,5.642,0c0.311-0.001,0.424,0.074,0.423,0.41
		c-0.022,8.599-0.036,17.2-0.052,25.797c0,0.455-0.004,0.457-0.463,0.457c-7.51,0.001-15.019,0.001-22.528,0
		c-0.431,0-0.554-0.002-0.554-0.448C0.01,24.998,0.012,20.705,0.012,16.411C-0.028,16.411,0.05,16.411,0.012,16.411z"/>
	<path fill="#3BB449" d="M10.235,17.43c-1.066,0-2.134-0.009-3.201,0.006c-0.284,0.004-0.366-0.091-0.361-0.367
		c0.016-0.801,0.013-1.601,0.002-2.4c-0.004-0.235,0.076-0.314,0.313-0.314c2.188,0.006,4.375,0.006,6.563,0
		c0.238,0,0.314,0.08,0.313,0.315c-0.01,0.812-0.012,1.621,0,2.433c0.005,0.248-0.077,0.336-0.331,0.334
		C12.433,17.423,11.333,17.43,10.235,17.43z"/>
	<path fill="#3BB449" d="M10.273,18.459c1.079,0,2.157,0.007,3.234-0.004c0.257-0.003,0.36,0.068,0.354,0.341
		c-0.015,0.802-0.015,1.601,0,2.399c0.005,0.271-0.093,0.345-0.352,0.345c-2.167-0.01-4.333-0.008-6.5-0.002
		c-0.241,0.002-0.34-0.063-0.336-0.323c0.013-0.811,0.013-1.624,0-2.435c-0.004-0.257,0.09-0.327,0.335-0.325
		C8.097,18.465,9.186,18.459,10.273,18.459z"/>
	<path fill="#3BB449" d="M10.275,22.563c1.078,0,2.157,0.008,3.234-0.006c0.257-0.002,0.359,0.068,0.354,0.342
		c-0.015,0.811-0.013,1.623-0.001,2.434c0.002,0.24-0.085,0.311-0.316,0.311c-2.179-0.007-4.355-0.007-6.533,0
		c-0.241,0-0.342-0.064-0.338-0.326c0.014-0.811,0.014-1.619,0-2.433c-0.004-0.258,0.093-0.325,0.335-0.325
		C8.098,22.566,9.186,22.563,10.275,22.563z"/>
	<path fill="#3BB449" d="M11.79,4.612c-1.409,0-2.818-0.008-4.228,0.006c-0.297,0.003-0.39-0.094-0.377-0.384
		c0.021-0.426,0.023-0.854,0-1.28C7.167,2.647,7.268,2.553,7.579,2.555c1.984,0.013,3.97,0.006,5.956,0.006
		c0.853,0,1.708,0.008,2.562-0.004c0.252-0.003,0.337,0.083,0.33,0.333c-0.016,0.448-0.02,0.896,0,1.345
		c0.013,0.289-0.08,0.387-0.377,0.384C14.629,4.605,13.209,4.612,11.79,4.612z"/>
	<path fill="#3BB449" d="M14.37,9.225c0-0.47-0.004-0.94,0.001-1.41c0.004-0.439,0.187-0.631,0.617-0.635
		c0.608-0.006,1.218-0.006,1.826,0c0.415,0.004,0.618,0.195,0.619,0.607c0.007,1.426,0.125,1.148-1.021,1.752
		c-0.101,0.052-0.266,0.07-0.264,0.199c0.001,0.126,0.167,0.144,0.267,0.197c0.256,0.135,0.52,0.253,0.771,0.392
		c0.268,0.147,0.347,0.422,0.211,0.682c-0.129,0.25-0.378,0.343-0.651,0.217c-0.368-0.169-0.729-0.354-1.092-0.539
		c-0.151-0.078-0.234-0.097-0.274,0.125c-0.057,0.321-0.288,0.484-0.56,0.451c-0.282-0.035-0.446-0.23-0.45-0.564
		C14.366,10.207,14.371,9.715,14.37,9.225z M15.396,8.517c0,0.366,0.021,0.38,0.311,0.238c0.199-0.098,0.397-0.202,0.596-0.305
		c0.058-0.031,0.104-0.08,0.089-0.153c-0.016-0.08-0.085-0.087-0.147-0.089c-0.17-0.004-0.343,0.007-0.512-0.007
		C15.468,8.178,15.347,8.277,15.396,8.517z"/>
	<path fill="#3BB449" d="M11.802,11.279c-1.11-0.002-2.043-0.934-2.045-2.045c-0.004-1.119,0.951-2.068,2.068-2.055
		c1.106,0.013,2.041,0.959,2.03,2.063C13.848,10.351,12.91,11.281,11.802,11.279z M10.78,9.201
		c-0.009,0.586,0.429,1.043,1.007,1.051c0.582,0.008,1.04-0.438,1.044-1.016c0.004-0.569-0.433-1.022-0.994-1.033
		C11.244,8.193,10.789,8.623,10.78,9.201z"/>
	<path fill="#3BB449" d="M17.961,9.211c0-0.47-0.005-0.939,0.002-1.409c0.006-0.431,0.198-0.62,0.633-0.623
		c0.62-0.005,1.239-0.005,1.858-0.001c0.394,0.003,0.592,0.184,0.586,0.52c-0.005,0.319-0.198,0.494-0.572,0.5
		c-0.405,0.007-0.813,0.008-1.218,0.001c-0.188-0.003-0.268,0.064-0.268,0.26c-0.001,0.2,0.084,0.268,0.271,0.256
		c0.104-0.006,0.214-0.006,0.32,0.005c0.286,0.029,0.441,0.193,0.452,0.482c0.011,0.288-0.132,0.468-0.413,0.521
		c-0.114,0.021-0.234,0.016-0.353,0.012c-0.177-0.007-0.275,0.042-0.278,0.249c-0.003,0.219,0.096,0.273,0.29,0.27
		c0.396-0.008,0.791-0.007,1.187,0.002c0.342,0.008,0.546,0.197,0.557,0.493c0.01,0.306-0.204,0.521-0.559,0.526
		c-0.642,0.009-1.282,0.01-1.922-0.001c-0.368-0.006-0.564-0.214-0.571-0.59C17.953,10.193,17.961,9.702,17.961,9.211z"/>
	<path fill="#3BB449" d="M4.135,7.177c0.289,0,0.577-0.002,0.866,0c0.442,0.003,0.664,0.178,0.66,0.518
		C5.658,8.031,5.437,8.197,4.986,8.201c-0.214,0.002-0.428,0.008-0.641,0C4.113,8.192,4.086,8.266,4.211,8.454
		c0.412,0.611,0.813,1.229,1.221,1.844c0.145,0.216,0.299,0.429,0.145,0.706c-0.15,0.267-0.403,0.28-0.669,0.278
		c-0.565-0.004-1.132,0.002-1.698-0.003c-0.378-0.003-0.618-0.202-0.625-0.501c-0.008-0.31,0.241-0.516,0.637-0.522
		c0.192-0.003,0.385,0.004,0.577-0.002c0.099-0.004,0.235,0.051,0.29-0.06c0.044-0.09-0.062-0.173-0.111-0.251
		c-0.394-0.6-0.789-1.196-1.185-1.792C2.647,7.933,2.5,7.716,2.66,7.443c0.146-0.248,0.386-0.272,0.642-0.268
		C3.58,7.182,3.857,7.177,4.135,7.177z"/>
	<path fill="#3BB449" d="M8.156,7.173c0.221,0,0.428,0.044,0.631,0.118C9.13,7.416,9.272,7.654,9.185,7.949
		C9.098,8.24,8.84,8.354,8.486,8.261C8.008,8.133,7.653,8.237,7.4,8.577C7.134,8.936,7.117,9.438,7.36,9.812
		c0.245,0.379,0.637,0.52,1.086,0.394c0.404-0.113,0.657-0.012,0.753,0.302c0.093,0.301-0.078,0.556-0.472,0.672
		c-0.797,0.235-1.494,0.035-2.034-0.578c-0.58-0.66-0.688-1.434-0.327-2.242C6.706,7.594,7.333,7.226,8.156,7.173z"/>
	<path fill="#3BB449" d="M5.651,15.906c0,0.414-0.007,0.83,0.002,1.246c0.006,0.207-0.077,0.281-0.28,0.279
		c-0.501-0.01-1.001-0.01-1.502,0c-0.216,0.004-0.272-0.094-0.271-0.291c0.006-0.83,0.008-1.662-0.001-2.493
		c-0.003-0.223,0.081-0.299,0.299-0.295c0.49,0.01,0.98,0.012,1.471,0c0.231-0.006,0.292,0.096,0.287,0.306
		C5.645,15.075,5.651,15.49,5.651,15.906z"/>
	<path fill="#3BB449" d="M14.885,15.863c-0.001-0.406,0.005-0.813-0.003-1.218c-0.005-0.195,0.051-0.294,0.269-0.291
		c0.502,0.011,1.004,0.007,1.507,0.001c0.18-0.002,0.276,0.048,0.275,0.251c-0.005,0.854-0.005,1.708,0,2.563
		c0.001,0.195-0.083,0.263-0.27,0.261c-0.502-0.006-1.004-0.008-1.506,0.002c-0.211,0.002-0.28-0.087-0.276-0.287
		C14.89,16.717,14.885,16.29,14.885,15.863z"/>
	<path fill="#3BB449" d="M17.96,15.877c0-0.404,0.012-0.811-0.004-1.215c-0.01-0.241,0.085-0.315,0.316-0.309
		c0.479,0.013,0.959,0.011,1.438,0c0.215-0.004,0.305,0.063,0.303,0.291c-0.01,0.831-0.01,1.663,0,2.493
		c0.002,0.227-0.086,0.299-0.301,0.295c-0.48-0.01-0.96-0.012-1.439,0c-0.229,0.006-0.326-0.066-0.317-0.309
		C17.97,16.708,17.96,16.293,17.96,15.877z"/>
	<path fill="#3BB449" d="M5.651,20.027c0,0.404-0.005,0.811,0.002,1.216c0.005,0.19-0.048,0.298-0.267,0.294
		c-0.511-0.012-1.023-0.007-1.536-0.003c-0.173,0.003-0.25-0.062-0.25-0.241c0.004-0.863,0.004-1.729,0-2.591
		c-0.001-0.179,0.075-0.245,0.249-0.244c0.511,0.005,1.023,0.009,1.534-0.001c0.218-0.004,0.274,0.095,0.27,0.291
		C5.646,19.174,5.651,19.602,5.651,20.027z"/>
	<path fill="#3BB449" d="M14.885,19.98c0-0.416,0.006-0.832-0.004-1.246c-0.004-0.211,0.081-0.281,0.284-0.277
		c0.501,0.009,1.001,0.008,1.502,0c0.188-0.002,0.267,0.068,0.266,0.262c-0.005,0.852-0.005,1.705,0,2.559
		c0.001,0.192-0.08,0.262-0.268,0.26c-0.5-0.007-1.001-0.008-1.501,0.001c-0.204,0.003-0.287-0.069-0.283-0.278
		C14.891,20.833,14.885,20.406,14.885,19.98z"/>
	<path fill="#3BB449" d="M17.961,19.977c-0.001-0.406,0.007-0.812-0.004-1.217c-0.005-0.214,0.061-0.31,0.291-0.304
		c0.5,0.013,1.001,0.009,1.503,0.001c0.191-0.002,0.262,0.074,0.261,0.266c-0.005,0.844-0.005,1.685,0.001,2.526
		c0.002,0.199-0.061,0.291-0.272,0.288c-0.513-0.012-1.023-0.008-1.535-0.003c-0.18,0.003-0.247-0.073-0.244-0.247
		C17.965,20.85,17.961,20.412,17.961,19.977z"/>
	<path fill="#3BB449" d="M5.651,24.109c0,0.414-0.007,0.832,0.002,1.248c0.005,0.203-0.07,0.285-0.278,0.281
		c-0.501-0.009-1.003-0.007-1.503,0c-0.184,0.002-0.273-0.056-0.271-0.256c0.005-0.853,0.005-1.706-0.001-2.559
		c0-0.188,0.067-0.27,0.262-0.266c0.512,0.008,1.023,0.008,1.534,0c0.198-0.002,0.261,0.084,0.257,0.271
		C5.646,23.256,5.65,23.682,5.651,24.109z"/>
	<path fill="#3BB449" d="M16.93,24.093c0,0.427-0.004,0.853,0.003,1.278c0.003,0.188-0.066,0.27-0.262,0.268
		c-0.511-0.007-1.022-0.006-1.533,0c-0.17,0.002-0.256-0.056-0.254-0.238c0.004-0.863,0.002-1.727-0.001-2.59
		c0-0.172,0.065-0.25,0.244-0.248c0.521,0.006,1.044,0.006,1.564,0c0.183-0.002,0.242,0.082,0.24,0.252
		C16.928,23.24,16.93,23.666,16.93,24.093z"/>
	<path fill="#3BB449" d="M20.011,24.091c0,0.416-0.008,0.833,0.002,1.248c0.007,0.214-0.063,0.308-0.291,0.302
		c-0.489-0.013-0.98-0.01-1.472-0.002c-0.193,0.002-0.294-0.047-0.291-0.267c0.008-0.854,0.006-1.706,0-2.56
		c-0.002-0.203,0.091-0.254,0.272-0.252c0.501,0.006,1.003,0.008,1.503-0.002c0.209-0.002,0.281,0.082,0.277,0.283
		C20.004,23.259,20.011,23.674,20.011,24.091z"/>
	<path fill="#3BB449" d="M14.068,2.049c-0.283,0.067-0.5-0.079-0.729-0.339c-0.862-0.981-2.363-0.907-3.193,0.127
		c-0.138,0.171-0.953,0.31-1.126,0.184C8.893,1.93,8.991,1.827,9.034,1.74c0.424-0.869,1.114-1.417,2.049-1.65
		c1.35-0.337,2.771,0.301,3.423,1.526c0.216,0.404,0.199,0.432-0.254,0.433C14.21,2.049,14.167,2.049,14.068,2.049z"/>
</g>
</svg>
