<?xml version="1.0" encoding="utf-8"?>
<!-- Generator: Adobe Illustrator 16.0.3, SVG Export Plug-In . SVG Version: 6.00 Build 0)  -->
<!DOCTYPE svg PUBLIC "-//W3C//DTD SVG 1.1//EN" "http://www.w3.org/Graphics/SVG/1.1/DTD/svg11.dtd">
<svg version="1.1" id="Layer_1" xmlns="http://www.w3.org/2000/svg" xmlns:xlink="http://www.w3.org/1999/xlink" x="0px" y="0px"
	 width="33.243px" height="29.432px" viewBox="0 0 33.243 29.432" enable-background="new 0 0 33.243 29.432" xml:space="preserve">
<g>
	<path fill="#3BB449" d="M0,14.787c1.56-1.343,3.132-2.675,4.68-4.033C8.743,7.186,12.796,3.606,16.887,0
		c5.466,4.941,10.91,9.864,16.355,14.787c0,0.05,0,0.099,0,0.148c-1.259,0.996-2.505,0.849-3.918-0.421
		c-3.931-3.538-7.869-7.065-11.809-10.597c-0.198-0.178-0.409-0.339-0.643-0.53c-2.064,1.745-4.11,3.474-6.155,5.201
		c-2.48,2.096-4.959,4.19-7.438,6.285c-0.114,0.094-0.227,0.189-0.347,0.275C1.808,15.938,0.986,15.877,0,14.935
		C0,14.885,0,14.837,0,14.787z"/>
	<path fill="#3BB449" d="M16.79,5.551c2.457,2.186,4.843,4.309,7.233,6.432c1.286,1.144,2.565,2.294,3.867,3.423
		c0.342,0.297,0.483,0.605,0.479,1.073c-0.02,3.862-0.011,7.727-0.013,11.59c-0.001,1.099-0.248,1.345-1.34,1.345
		c-2.531,0.002-5.063,0.001-7.72,0.001c0-0.322,0-0.603,0-0.884c0.008-1.87,0.021-3.74,0.02-5.61
		c-0.001-1.146-0.352-1.48-1.507-1.482c-1.033-0.003-2.066-0.008-3.1,0.001c-0.797,0.007-1.108,0.314-1.112,1.122
		c-0.009,1.992-0.005,3.985-0.006,5.979c0,0.267,0,0.531,0,0.881c-1.035,0-2.01,0-2.987,0.001c-1.722,0.001-3.444-0.009-5.167,0.012
		c-0.622,0.008-0.892-0.238-0.891-0.869c0.011-4.109,0.002-8.22,0.015-12.328c0-0.197,0.068-0.465,0.206-0.582
		C8.751,12.29,12.746,8.944,16.79,5.551z"/>
	<path fill="#3BB449" d="M26.055,3.421c1.087,0,2.107,0,3.181,0c0,2.146,0,4.274,0,6.543c-0.493-0.4-0.901-0.811-1.38-1.104
		c-1.438-0.883-2.104-2.086-1.813-3.795C26.129,4.544,26.055,3.997,26.055,3.421z"/>
</g>
</svg>
