<?xml version="1.0" encoding="utf-8"?>
<!-- Generator: Adobe Illustrator 16.0.3, SVG Export Plug-In . SVG Version: 6.00 Build 0)  -->
<!DOCTYPE svg PUBLIC "-//W3C//DTD SVG 1.1//EN" "http://www.w3.org/Graphics/SVG/1.1/DTD/svg11.dtd">
<svg version="1.1" id="Layer_1" xmlns="http://www.w3.org/2000/svg" xmlns:xlink="http://www.w3.org/1999/xlink" x="0px" y="0px"
	 width="103.359px" height="21.833px" viewBox="0 0 103.359 21.833" enable-background="new 0 0 103.359 21.833"
	 xml:space="preserve">
<g enable-background="new    ">
	<path fill="#15C407" d="M5.484,13.715V8.231h8.226V2.747H5.484v2.742H0V2.747h2.742V0h13.71v2.746h2.747v5.484h-2.747v2.742h-5.484
		v2.742H5.484z M5.484,19.2v-2.742h5.484V19.2H5.484z"/>
</g>
<g>
	<path fill="#15C407" d="M21.699,18.508c-0.823-0.512-1.472-1.225-1.941-2.137c-0.471-0.912-0.705-1.947-0.705-3.104
		c0-1.154,0.234-2.188,0.705-3.102s1.118-1.625,1.941-2.137c0.822-0.512,1.753-0.767,2.788-0.767c0.902,0,1.718,0.188,2.441,0.561
		c0.725,0.374,1.327,0.913,1.808,1.617l-1.778,1.881c-0.641-0.902-1.417-1.353-2.329-1.353c-0.537,0-1.016,0.137-1.434,0.413
		c-0.42,0.275-0.743,0.662-0.975,1.163c-0.23,0.502-0.346,1.076-0.346,1.725s0.115,1.225,0.346,1.727
		c0.23,0.5,0.555,0.887,0.975,1.162c0.418,0.274,0.896,0.412,1.434,0.412c0.912,0,1.688-0.451,2.329-1.354l1.778,1.882
		c-0.479,0.704-1.083,1.243-1.808,1.616s-1.539,0.562-2.441,0.562C23.452,19.276,22.522,19.02,21.699,18.508z"/>
	<path fill="#15C407" d="M31.935,18.5c-0.833-0.519-1.486-1.232-1.962-2.146c-0.477-0.913-0.713-1.941-0.713-3.086
		c0-1.143,0.236-2.172,0.713-3.085c0.476-0.913,1.129-1.628,1.962-2.145c0.832-0.517,1.771-0.775,2.815-0.775
		c1.045,0,1.983,0.259,2.816,0.775c0.832,0.517,1.487,1.232,1.962,2.145c0.477,0.913,0.714,1.942,0.714,3.085
		c0,1.145-0.237,2.173-0.714,3.086c-0.475,0.913-1.13,1.628-1.962,2.146c-0.833,0.517-1.771,0.774-2.816,0.774
		C33.706,19.276,32.767,19.017,31.935,18.5z M36.106,16.159c0.404-0.275,0.725-0.664,0.959-1.164c0.235-0.5,0.354-1.076,0.354-1.726
		c0-0.647-0.118-1.224-0.354-1.724c-0.235-0.501-0.555-0.888-0.959-1.164C35.701,10.107,35.25,9.97,34.75,9.97
		c-0.499,0-0.949,0.137-1.354,0.413c-0.404,0.276-0.725,0.662-0.96,1.163c-0.234,0.502-0.354,1.076-0.354,1.725
		s0.118,1.225,0.354,1.727c0.235,0.5,0.556,0.887,0.96,1.162c0.405,0.274,0.855,0.412,1.354,0.412
		C35.25,16.57,35.701,16.432,36.106,16.159z"/>
	<path fill="#15C407" d="M41.71,7.495h4.673c1.082,0,2.042,0.237,2.88,0.71c0.838,0.473,1.487,1.144,1.948,2.013
		c0.462,0.869,0.69,1.887,0.69,3.052c0,1.167-0.229,2.186-0.69,3.055c-0.461,0.867-1.11,1.539-1.948,2.012
		c-0.838,0.475-1.798,0.711-2.88,0.711H41.71V7.495z M46.27,16.438c0.849,0,1.527-0.279,2.04-0.842
		c0.515-0.561,0.771-1.336,0.771-2.327c0-0.989-0.256-1.765-0.771-2.326c-0.513-0.561-1.191-0.841-2.04-0.841h-1.765v6.336H46.27z"
		/>
	<path fill="#15C407" d="M61.305,16.52v2.525h-7.934V7.495h7.75v2.524h-4.983v1.946h4.391v2.443h-4.391v2.11L61.305,16.52
		L61.305,16.52z"/>
	<path fill="#15C407" d="M73.827,20.381c-0.329,0.473-0.732,0.834-1.207,1.08c-0.477,0.248-0.995,0.371-1.562,0.371
		c-0.545,0-1.039-0.082-1.48-0.246c-0.442-0.166-0.889-0.438-1.334-0.817c-0.447-0.38-0.949-0.91-1.504-1.593
		c-0.856-0.164-1.619-0.521-2.287-1.072c-0.668-0.55-1.188-1.243-1.561-2.079c-0.372-0.835-0.558-1.754-0.558-2.756
		c0-1.144,0.236-2.172,0.713-3.085c0.476-0.913,1.129-1.628,1.962-2.145s1.771-0.775,2.816-0.775c1.045,0,1.982,0.259,2.816,0.775
		c0.832,0.517,1.486,1.232,1.962,2.145s0.713,1.941,0.713,3.085c0,1.3-0.305,2.444-0.91,3.44c-0.607,0.996-1.424,1.707-2.449,2.138
		c0.188,0.241,0.374,0.411,0.558,0.512c0.185,0.099,0.384,0.147,0.601,0.147c0.556,0,1.055-0.27,1.496-0.809L73.827,20.381z
		 M65.512,14.995c0.235,0.5,0.556,0.889,0.961,1.164c0.404,0.273,0.855,0.411,1.354,0.411s0.95-0.138,1.354-0.411
		c0.405-0.275,0.726-0.664,0.96-1.164c0.235-0.5,0.354-1.076,0.354-1.726c0-0.647-0.117-1.224-0.354-1.724
		c-0.236-0.501-0.555-0.888-0.96-1.164c-0.404-0.275-0.855-0.413-1.354-0.413s-0.95,0.137-1.354,0.413
		c-0.405,0.275-0.726,0.662-0.961,1.164c-0.235,0.5-0.353,1.074-0.353,1.724S65.276,14.495,65.512,14.995z"/>
	<path fill="#15C407" d="M82.706,10.102v8.943h-2.556v-0.957c-0.281,0.363-0.621,0.638-1.017,0.824
		c-0.396,0.188-0.814,0.28-1.257,0.28c-0.987,0-1.776-0.342-2.364-1.022c-0.588-0.682-0.882-1.705-0.882-3.069v-4.999h2.682v4.488
		c0,0.67,0.108,1.16,0.325,1.468c0.217,0.31,0.531,0.462,0.945,0.462c0.424,0,0.77-0.173,1.038-0.52
		c0.268-0.348,0.401-0.877,0.401-1.592v-4.308L82.706,10.102L82.706,10.102z"/>
	<path fill="#15C407" d="M84.584,8.633c-0.302-0.319-0.452-0.715-0.452-1.188c0-0.472,0.15-0.868,0.452-1.188
		c0.302-0.32,0.696-0.479,1.187-0.479s0.884,0.151,1.187,0.454c0.301,0.303,0.452,0.69,0.452,1.163c0,0.495-0.151,0.905-0.452,1.229
		c-0.303,0.325-0.696,0.487-1.187,0.487S84.886,8.952,84.584,8.633z M84.429,10.102h2.683v8.943h-2.683V10.102z"/>
	<path fill="#15C407" d="M95.511,16.704v2.342h-7.06v-1.848l3.544-4.77h-3.444v-2.326h6.819v1.832l-3.544,4.77H95.511z"/>
	<path fill="#15C407" d="M103.36,16.704v2.342H96.3v-1.848l3.544-4.77h-3.445v-2.326h6.819v1.832l-3.543,4.77H103.36z"/>
</g>
</svg>
