<?xml version="1.0" encoding="utf-8"?>
<!-- Generator: Adobe Illustrator 16.0.3, SVG Export Plug-In . SVG Version: 6.00 Build 0)  -->
<!DOCTYPE svg PUBLIC "-//W3C//DTD SVG 1.1//EN" "http://www.w3.org/Graphics/SVG/1.1/DTD/svg11.dtd">
<svg version="1.1" id="Layer_1" xmlns="http://www.w3.org/2000/svg" xmlns:xlink="http://www.w3.org/1999/xlink" x="0px" y="0px"
	 width="278.848px" height="58.9px" viewBox="0 -37.068 278.848 58.9" enable-background="new 0 -37.068 278.848 58.9"
	 xml:space="preserve">
<g enable-background="new    ">
	<path fill="#FFFFFF" d="M14.796-0.066v-14.796h22.191v-14.794H14.796v7.398H0v-7.398h7.398v-7.411h36.987v7.409h7.411v14.794
		h-7.411v7.398H29.589v7.396H14.796V-0.066z M14.796,14.73V7.332h14.793v7.398H14.796z"/>
</g>
<g>
	<path fill="#FFFFFF" d="M58.541,12.865c-2.222-1.381-3.971-3.304-5.238-5.765c-1.27-2.461-1.899-5.253-1.899-8.375
		c0-3.114,0.63-5.903,1.899-8.369c1.272-2.466,3.017-4.384,5.238-5.766c2.218-1.38,4.729-2.069,7.521-2.069
		c2.435,0,4.634,0.508,6.586,1.515c1.955,1.008,3.578,2.462,4.877,4.362l-4.798,5.074c-1.728-2.433-3.822-3.65-6.283-3.65
		c-1.449,0-2.74,0.37-3.867,1.115c-1.133,0.741-2.005,1.786-2.63,3.139c-0.621,1.354-0.936,2.903-0.936,4.653
		s0.312,3.304,0.936,4.658c0.619,1.349,1.497,2.392,2.63,3.135c1.127,0.741,2.415,1.112,3.867,1.112
		c2.461,0,4.556-1.217,6.283-3.651l4.798,5.077c-1.294,1.9-2.922,3.354-4.877,4.36c-1.957,1.007-4.151,1.515-6.586,1.515
		C63.269,14.935,60.761,14.245,58.541,12.865z"/>
	<path fill="#FFFFFF" d="M86.156,12.843c-2.247-1.401-4.01-3.325-5.293-5.791c-1.288-2.463-1.926-5.237-1.926-8.325
		c0-3.083,0.638-5.859,1.926-8.323c1.283-2.463,3.046-4.392,5.293-5.787c2.245-1.395,4.776-2.091,7.593-2.091
		c2.819,0,5.351,0.698,7.599,2.091c2.244,1.395,4.013,3.323,5.293,5.787c1.285,2.463,1.926,5.24,1.926,8.323
		c0,3.088-0.641,5.862-1.926,8.325c-1.28,2.463-3.049,4.392-5.293,5.791c-2.248,1.394-4.779,2.087-7.599,2.087
		C90.932,14.935,88.401,14.237,86.156,12.843z M97.408,6.525c1.089-0.743,1.955-1.792,2.588-3.14
		c0.632-1.349,0.953-2.903,0.953-4.655c0-1.747-0.318-3.301-0.953-4.65c-0.635-1.353-1.499-2.396-2.588-3.142
		c-1.093-0.739-2.311-1.109-3.659-1.109c-1.346,0-2.561,0.37-3.651,1.115c-1.091,0.746-1.957,1.786-2.59,3.136
		c-0.632,1.354-0.956,2.903-0.956,4.655s0.318,3.307,0.956,4.661c0.633,1.349,1.499,2.392,2.59,3.135
		c1.091,0.738,2.306,1.112,3.651,1.112C95.097,7.635,96.315,7.263,97.408,6.525z"/>
	<path fill="#FFFFFF" d="M112.526-16.847h12.606c2.919,0,5.509,0.639,7.771,1.915c2.261,1.275,4.01,3.086,5.254,5.43
		c1.246,2.345,1.862,5.091,1.862,8.234c0,3.148-0.619,5.896-1.862,8.241c-1.244,2.34-2.993,4.152-5.254,5.428
		c-2.263,1.283-4.853,1.918-7.771,1.918h-12.606V-16.847z M124.829,7.279c2.29,0,4.118-0.753,5.504-2.271
		c1.389-1.512,2.079-3.604,2.079-6.278c0-2.669-0.69-4.761-2.079-6.276c-1.386-1.514-3.214-2.268-5.504-2.268h-4.763V7.279H124.829z
		"/>
	<path fill="#FFFFFF" d="M165.391,7.5v6.813h-21.406v-31.16h20.908v6.809h-13.441v5.25h11.845v6.592h-11.845v5.691L165.391,7.5
		L165.391,7.5z"/>
	<path fill="#FFFFFF" d="M199.172,17.917c-0.888,1.275-1.973,2.25-3.256,2.914c-1.286,0.669-2.685,1.001-4.213,1.001
		c-1.47,0-2.803-0.222-3.994-0.664c-1.19-0.447-2.397-1.183-3.599-2.205c-1.207-1.024-2.561-2.455-4.058-4.297
		c-2.311-0.442-4.368-1.407-6.17-2.893c-1.802-1.483-3.203-3.354-4.21-5.609c-1.004-2.252-1.507-4.731-1.507-7.435
		c0-3.085,0.638-5.859,1.923-8.323c1.286-2.463,3.046-4.392,5.293-5.787s4.779-2.09,7.599-2.09c2.818,0,5.348,0.698,7.598,2.09
		c2.245,1.395,4.008,3.324,5.293,5.787c1.283,2.463,1.924,5.237,1.924,8.323c0,3.506-0.822,6.594-2.456,9.281
		c-1.639,2.688-3.841,4.605-6.607,5.768c0.509,0.65,1.009,1.108,1.507,1.38c0.498,0.267,1.035,0.398,1.62,0.398
		c1.499,0,2.846-0.73,4.036-2.182L199.172,17.917z M176.741,3.385c0.633,1.349,1.499,2.397,2.593,3.14
		c1.088,0.738,2.305,1.109,3.651,1.109s2.563-0.372,3.654-1.109c1.091-0.743,1.957-1.792,2.59-3.14
		c0.632-1.349,0.954-2.903,0.954-4.655c0-1.747-0.316-3.301-0.954-4.65c-0.638-1.353-1.499-2.396-2.59-3.142
		c-1.091-0.742-2.308-1.114-3.654-1.114s-2.563,0.37-3.651,1.114c-1.094,0.743-1.96,1.786-2.593,3.142
		c-0.635,1.349-0.953,2.898-0.953,4.65C175.788,0.482,176.103,2.036,176.741,3.385z"/>
	<path fill="#FFFFFF" d="M223.126-9.814v24.127h-6.895v-2.581c-0.759,0.979-1.676,1.72-2.745,2.224
		c-1.067,0.505-2.195,0.753-3.391,0.753c-2.661,0-4.79-0.922-6.376-2.756c-1.589-1.841-2.382-4.6-2.382-8.28V-9.814h7.237V2.294
		c0,1.807,0.29,3.13,0.877,3.96C210.037,7.089,210.883,7.5,212,7.5c1.144,0,2.079-0.466,2.801-1.402
		c0.725-0.94,1.083-2.366,1.083-4.294V-9.819L223.126-9.814L223.126-9.814z"/>
	<path fill="#FFFFFF" d="M228.192-13.778c-0.814-0.86-1.22-1.929-1.22-3.205c0-1.272,0.405-2.341,1.22-3.205
		c0.816-0.863,1.879-1.292,3.204-1.292s2.384,0.408,3.2,1.225c0.812,0.818,1.22,1.861,1.22,3.138c0,1.335-0.408,2.441-1.22,3.315
		c-0.816,0.877-1.875,1.313-3.2,1.313S229.009-12.917,228.192-13.778z M227.776-9.814h7.237v24.127h-7.237V-9.814z"/>
	<path fill="#FFFFFF" d="M257.674,7.996v6.317h-19.049V9.329l9.562-12.867h-9.292v-6.275h18.396v4.942L247.73,7.996H257.674z"/>
	<path fill="#FFFFFF" d="M278.847,7.996v6.317H259.8V9.329l9.563-12.867h-9.295v-6.275h18.395v4.942l-9.559,12.867H278.847z"/>
</g>
</svg>
